<svg width="209" height="55" viewBox="0 0 209 55" fill="none" xmlns="http://www.w3.org/2000/svg">
<path fill-rule="evenodd" clip-rule="evenodd" d="M0.75164 17.8553V43.0387C8.03659 43.0387 9.98012 36.7205 16.5394 36.7205C17.8059 36.7205 23.9851 43.0387 25.2294 43.0387C40.6937 43.0387 54.5028 43.0387 68.1597 43.0387C68.9129 43.0387 80.5869 34.2633 82.0932 34.8029C84.0872 34.8029 93.6258 43.0387 95.6502 43.0387C110.256 43.0387 125.769 43.0387 143.853 43.0387C143.853 43.0387 140.463 19.2944 149.125 19.4742C157.786 19.6541 155.15 43.0387 155.15 43.0387H176.239L190.205 34.8029L202.599 43.0387H208.248V24.8707H176.239V35.8434H163.435V13.082H157.786V12.0991H151.761V11.3796H153.367V9.94052H150.631V11.3796H149.125V10.8399H143.476V11.3796H141.97V9.94052H137.451V11.3796H134.64L134.438 11.7393H125.4V12.0991H122.387V13.082L121.634 13.1784V13.718H117.667V12.0991L114.856 11.7393V10.8399H111.843V12.0991H109.207V13.718H107.324V15.1571H103.935V36.9227H99.416V41.5996H96.0267V21.0932H89.6249V19.4742H88.1185V18.7547H86.6122V16.5961L82.0932 12.0991H80.5869L77.9508 15.1571H76.0679V9.58076L73.8084 8.50147H57.6154L56.4857 9.04111V29.3677H50.4604V33.505H45.5648V36.3831H43.6819V36.7205L42.1017 36.9227L41.799 37.4624L39.9161 36.9227V17.8553L33.8908 16.5961L0.75164 17.8553Z" fill="#00827D"/>
<path d="M0 41.7103H4.13489L18.0432 32.6775L31.9514 41.7103H44.3561L58.6403 32.6775H82.6978L95.8543 41.7103H107.131V29.7551H112.018V32.4119H141.338V25.7701H138.331V23.9104L147.353 18.597H148.856V12.7522L149.608 12.7522V18.597H151.111L159.757 23.9104V25.7701H157.126V41.7103H175.545L189.077 32.9432L203.737 41.4447H205.617H209V43.57H205.617H202.234L189.829 35.8656L176.297 43.57H153.743V24.9731C153.743 23.379 151.863 20.4567 149.232 20.4567C145.849 20.4567 144.721 23.379 144.721 24.9731V43.57H95.4784L81.946 35.3342L67.286 44.1014H65.4065V43.57H25.1853L15.036 37.4596L4.51079 43.57H0V41.7103Z" fill="black"/>
<path d="M40.0111 48.8152C40.0061 49.0063 39.9961 49.1997 39.9811 49.3956C39.9711 49.5867 39.9536 49.7802 39.9286 49.9761H39.7335L39.4258 49.1878H37.7898V51.0868H39.013L39.3057 50.5565H39.4933C39.5233 51.0295 39.5233 51.512 39.4933 52.0041H39.3057L39.013 51.4595H37.7898V53.4589H39.5158L39.8835 52.5989H40.0712C40.1062 52.7996 40.1312 53.0026 40.1462 53.208C40.1612 53.4135 40.1637 53.6213 40.1537 53.8315H36.454V53.6237C36.6291 53.5472 36.8342 53.4899 37.0694 53.4517V49.2021C36.9693 49.183 36.8667 49.1591 36.7617 49.1305C36.6566 49.097 36.5541 49.0612 36.454 49.023V48.8152H40.0111Z" fill="black"/>
<path d="M41.0019 51.3233C41.0019 50.9507 41.0545 50.6067 41.1595 50.2914C41.2696 49.9713 41.4247 49.6966 41.6248 49.4673C41.8299 49.2332 42.0801 49.0516 42.3753 48.9226C42.6704 48.7937 43.0056 48.7292 43.3809 48.7292C43.7561 48.7292 44.0913 48.7937 44.3865 48.9226C44.6816 49.0516 44.9293 49.2332 45.1294 49.4673C45.3345 49.6966 45.4896 49.9713 45.5947 50.2914C45.7048 50.6067 45.7598 50.9507 45.7598 51.3233C45.7598 51.696 45.7048 52.0423 45.5947 52.3624C45.4896 52.6777 45.3345 52.9524 45.1294 53.1865C44.9293 53.4159 44.6816 53.595 44.3865 53.724C44.0913 53.853 43.7561 53.9175 43.3809 53.9175C43.0056 53.9175 42.6704 53.853 42.3753 53.724C42.0801 53.595 41.8299 53.4159 41.6248 53.1865C41.4247 52.9524 41.2696 52.6777 41.1595 52.3624C41.0545 52.0423 41.0019 51.696 41.0019 51.3233ZM41.8049 51.3233C41.8049 51.6291 41.8374 51.9181 41.9025 52.1904C41.9725 52.458 42.0751 52.6921 42.2102 52.8927C42.3453 53.0934 42.5154 53.2534 42.7205 53.3729C42.9256 53.4875 43.1682 53.5448 43.4484 53.5448C43.7036 53.5448 43.9262 53.4875 44.1163 53.3729C44.3064 53.2534 44.4615 53.0934 44.5816 52.8927C44.7067 52.6921 44.7992 52.458 44.8593 52.1904C44.9243 51.9181 44.9568 51.6291 44.9568 51.3233C44.9568 51.0176 44.9243 50.7309 44.8593 50.4634C44.7942 50.1911 44.6942 49.9546 44.5591 49.7539C44.424 49.5533 44.2539 49.3956 44.0488 49.281C43.8436 49.1615 43.601 49.1018 43.3208 49.1018C43.0457 49.1018 42.8105 49.1615 42.6154 49.281C42.4253 49.3956 42.2702 49.5533 42.1501 49.7539C42.0301 49.9546 41.9425 50.1911 41.8875 50.4634C41.8324 50.7309 41.8049 51.0176 41.8049 51.3233Z" fill="black"/>
<path d="M47.7127 53.4517C47.8478 53.466 47.9754 53.4899 48.0954 53.5234C48.2155 53.552 48.3281 53.5855 48.4331 53.6237V53.8315H46.3769V53.6237C46.477 53.5759 46.5795 53.5401 46.6846 53.5162C46.7897 53.4923 46.8922 53.4708 46.9923 53.4517V49.2021C46.8772 49.183 46.7697 49.1591 46.6696 49.1305C46.5695 49.097 46.472 49.0612 46.3769 49.023V48.8152H47.0523C47.2524 48.8152 47.4701 48.8056 47.7052 48.7865C47.9404 48.7674 48.1655 48.7578 48.3806 48.7578C48.6258 48.7578 48.8659 48.7841 49.101 48.8367C49.3362 48.8844 49.5438 48.968 49.7239 49.0875C49.909 49.2069 50.0566 49.367 50.1667 49.5676C50.2818 49.7635 50.3393 50.0095 50.3393 50.3057C50.3393 50.5876 50.2818 50.8289 50.1667 51.0295C50.0516 51.2302 49.8965 51.395 49.7014 51.524C49.5113 51.653 49.2937 51.7485 49.0485 51.8106C48.8034 51.868 48.5507 51.8966 48.2906 51.8966C48.2655 51.8966 48.2255 51.8966 48.1705 51.8966C48.1205 51.8966 48.0654 51.8966 48.0054 51.8966C47.9454 51.8918 47.8878 51.8871 47.8328 51.8823C47.7778 51.8775 47.7377 51.8727 47.7127 51.868V53.4517ZM48.223 49.1305C48.103 49.1305 48.0054 49.1329 47.9304 49.1376C47.8553 49.1424 47.7828 49.152 47.7127 49.1663V51.4882C47.7377 51.4977 47.7728 51.5049 47.8178 51.5097C47.8678 51.5097 47.9178 51.512 47.9679 51.5168C48.0229 51.5216 48.0754 51.524 48.1255 51.524C48.1755 51.524 48.2155 51.524 48.2455 51.524C48.4206 51.524 48.5857 51.5025 48.7408 51.4595C48.8959 51.4117 49.031 51.3377 49.1461 51.2373C49.2662 51.137 49.3612 51.0104 49.4312 50.8575C49.5013 50.7046 49.5363 50.5207 49.5363 50.3057C49.5363 49.914 49.4187 49.6202 49.1836 49.4243C48.9535 49.2284 48.6333 49.1305 48.223 49.1305Z" fill="black"/>
<path d="M50.8474 48.8152H52.9036V49.023C52.7835 49.066 52.6635 49.1042 52.5434 49.1376C52.4233 49.1663 52.3032 49.1878 52.1832 49.2021V53.4589H53.9092L54.352 52.3051H54.5471C54.5621 52.4054 54.5746 52.5225 54.5846 52.6562C54.5996 52.7852 54.6096 52.9214 54.6146 53.0647C54.6246 53.2033 54.6296 53.3394 54.6296 53.4732C54.6296 53.607 54.6271 53.7264 54.6221 53.8315H50.8474V53.6237C50.9674 53.5711 51.0775 53.5329 51.1776 53.509C51.2776 53.4851 51.3727 53.466 51.4627 53.4517V49.2021C51.3477 49.183 51.2376 49.1591 51.1325 49.1305C51.0275 49.097 50.9324 49.0612 50.8474 49.023V48.8152Z" fill="black"/>
<path d="M58.5232 48.8152C58.5182 49.0063 58.5082 49.1997 58.4931 49.3956C58.4831 49.5867 58.4656 49.7802 58.4406 49.9761H58.2455L57.9378 49.1878H56.3018V51.0868H57.5251L57.8177 50.5565H58.0054C58.0354 51.0295 58.0354 51.512 58.0054 52.0041H57.8177L57.5251 51.4595H56.3018V53.4589H58.0279L58.3956 52.5989H58.5832C58.6182 52.7996 58.6432 53.0026 58.6582 53.208C58.6733 53.4135 58.6758 53.6213 58.6658 53.8315H54.966V53.6237C55.1411 53.5472 55.3463 53.4899 55.5814 53.4517V49.2021C55.4813 49.183 55.3788 49.1591 55.2737 49.1305C55.1687 49.097 55.0661 49.0612 54.966 49.023V48.8152H58.5232Z" fill="black"/>
<path d="M60.2419 53.337C60.302 53.3944 60.3795 53.4445 60.4746 53.4875C60.5696 53.5257 60.7122 53.5448 60.9023 53.5448C61.0624 53.5448 61.2125 53.5257 61.3526 53.4875C61.4927 53.4445 61.6128 53.3848 61.7128 53.3084C61.8179 53.2271 61.9004 53.1316 61.9605 53.0217C62.0205 52.9071 62.0505 52.7781 62.0505 52.6347C62.0505 52.4436 61.988 52.2836 61.8629 52.1546C61.7428 52.0256 61.5902 51.911 61.4051 51.8106C61.225 51.7103 61.0274 51.6124 60.8123 51.5168C60.5971 51.4213 60.397 51.309 60.2119 51.18C60.0318 51.0462 59.8792 50.8886 59.7541 50.707C59.6341 50.5207 59.574 50.289 59.574 50.0119C59.574 49.8113 59.6116 49.6321 59.6866 49.4744C59.7616 49.3168 59.8667 49.183 60.0018 49.0731C60.1419 48.9633 60.307 48.8797 60.4971 48.8223C60.6872 48.7602 60.8998 48.7292 61.135 48.7292C61.4402 48.7292 61.7178 48.753 61.968 48.8008C62.2231 48.8438 62.4232 48.8988 62.5683 48.9656C62.5683 49.0469 62.5608 49.1424 62.5458 49.2523C62.5358 49.3574 62.5208 49.4673 62.5008 49.5819C62.4858 49.6966 62.4683 49.8089 62.4483 49.9188C62.4282 50.0239 62.4082 50.117 62.3882 50.1982H62.1931L61.8929 49.2165C61.8029 49.1782 61.6878 49.1496 61.5477 49.1305C61.4126 49.1114 61.2675 49.1018 61.1125 49.1018C60.8573 49.1018 60.6522 49.1711 60.4971 49.3096C60.342 49.4434 60.2644 49.6321 60.2644 49.8758C60.2644 50.0716 60.3245 50.2365 60.4445 50.3702C60.5696 50.504 60.7247 50.6234 60.9098 50.7285C61.0949 50.8336 61.2926 50.9364 61.5027 51.0367C61.7178 51.1322 61.9179 51.2445 62.103 51.3735C62.2882 51.5025 62.4407 51.6554 62.5608 51.8321C62.6859 52.0089 62.7484 52.2287 62.7484 52.4914C62.7484 52.7064 62.7059 52.9023 62.6209 53.079C62.5408 53.2558 62.4232 53.4063 62.2681 53.5305C62.113 53.6547 61.9229 53.7503 61.6978 53.8172C61.4727 53.8841 61.2175 53.9175 60.9323 53.9175C60.6172 53.9175 60.3345 53.8817 60.0843 53.81C59.8342 53.7383 59.6566 53.6619 59.5515 53.5807C59.5565 53.4995 59.564 53.4015 59.574 53.2869C59.589 53.1722 59.604 53.0552 59.6191 52.9357C59.6391 52.8115 59.6591 52.6921 59.6791 52.5774C59.6991 52.4628 59.7191 52.3648 59.7391 52.2836H59.9342L60.2419 53.337Z" fill="black"/>
<path d="M66.5167 53.8315H64.4079V53.6237C64.518 53.5855 64.628 53.552 64.7381 53.5234C64.8532 53.4947 64.9758 53.4708 65.1058 53.4517V49.1878H63.9576L63.5599 50.2126H63.3723C63.3573 50.117 63.3448 50.0095 63.3348 49.8901C63.3248 49.7659 63.3148 49.6417 63.3048 49.5174C63.2998 49.3884 63.2948 49.2642 63.2897 49.1448C63.2847 49.0206 63.2822 48.9107 63.2822 48.8152H67.6424C67.6424 48.9107 67.6399 49.0182 67.6348 49.1376C67.6298 49.2571 67.6223 49.3813 67.6123 49.5103C67.6073 49.6345 67.5998 49.7587 67.5898 49.8829C67.5848 50.0024 67.5748 50.1122 67.5598 50.2126H67.3647L66.9745 49.1878H65.8263V53.4517C65.9563 53.4756 66.0764 53.4995 66.1865 53.5234C66.3015 53.5472 66.4116 53.5807 66.5167 53.6237V53.8315Z" fill="black"/>
<path d="M68.1837 51.3233C68.1837 50.9507 68.2363 50.6067 68.3413 50.2914C68.4514 49.9713 68.6065 49.6966 68.8066 49.4673C69.0117 49.2332 69.2619 49.0516 69.5571 48.9226C69.8522 48.7937 70.1874 48.7292 70.5627 48.7292C70.9379 48.7292 71.2731 48.7937 71.5683 48.9226C71.8634 49.0516 72.1111 49.2332 72.3112 49.4673C72.5163 49.6966 72.6714 49.9713 72.7765 50.2914C72.8865 50.6067 72.9416 50.9507 72.9416 51.3233C72.9416 51.696 72.8865 52.0423 72.7765 52.3624C72.6714 52.6777 72.5163 52.9524 72.3112 53.1865C72.1111 53.4159 71.8634 53.595 71.5683 53.724C71.2731 53.853 70.9379 53.9175 70.5627 53.9175C70.1874 53.9175 69.8522 53.853 69.5571 53.724C69.2619 53.595 69.0117 53.4159 68.8066 53.1865C68.6065 52.9524 68.4514 52.6777 68.3413 52.3624C68.2363 52.0423 68.1837 51.696 68.1837 51.3233ZM68.9867 51.3233C68.9867 51.6291 69.0192 51.9181 69.0843 52.1904C69.1543 52.458 69.2569 52.6921 69.392 52.8927C69.527 53.0934 69.6971 53.2534 69.9023 53.3729C70.1074 53.4875 70.35 53.5448 70.6302 53.5448C70.8853 53.5448 71.108 53.4875 71.2981 53.3729C71.4882 53.2534 71.6433 53.0934 71.7634 52.8927C71.8884 52.6921 71.981 52.458 72.041 52.1904C72.1061 51.9181 72.1386 51.6291 72.1386 51.3233C72.1386 51.0176 72.1061 50.7309 72.041 50.4634C71.976 50.1911 71.8759 49.9546 71.7409 49.7539C71.6058 49.5533 71.4357 49.3956 71.2306 49.281C71.0254 49.1615 70.7828 49.1018 70.5026 49.1018C70.2275 49.1018 69.9923 49.1615 69.7972 49.281C69.6071 49.3956 69.452 49.5533 69.3319 49.7539C69.2118 49.9546 69.1243 50.1911 69.0693 50.4634C69.0142 50.7309 68.9867 51.0176 68.9867 51.3233Z" fill="black"/>
<path d="M79.0728 49.2021C78.9677 49.1878 78.8627 49.1663 78.7576 49.1376C78.6526 49.1042 78.5425 49.066 78.4274 49.023V48.8152H80.1084V49.023C79.9383 49.0946 79.7582 49.1544 79.5681 49.2021L78.3148 53.8315L77.8496 53.9175L76.6413 50.0191L75.4556 53.8315L74.9979 53.9175L73.6696 49.2021C73.5695 49.1782 73.472 49.152 73.3769 49.1233C73.2818 49.0946 73.1893 49.0612 73.0992 49.023V48.8152H75.0504V49.023C74.9553 49.0564 74.8578 49.0899 74.7577 49.1233C74.6577 49.152 74.5501 49.1782 74.435 49.2021L75.178 52.0901L75.3431 53.0217H75.3581L75.6207 52.0758L76.6338 48.8152H76.889L77.9771 52.0758L78.1948 53.0074H78.2098L78.3824 52.0614L79.0728 49.2021Z" fill="black"/>
<path d="M83.7601 48.8152H85.381V49.023C85.1709 49.1567 84.9658 49.2523 84.7657 49.3096V53.9175H84.3379L81.6138 49.9689L81.3211 49.41H81.2986L81.3661 49.9689V53.3729C81.5712 53.4254 81.7639 53.509 81.944 53.6237V53.8315H80.323V53.6237C80.4131 53.5711 80.5081 53.5257 80.6082 53.4875C80.7132 53.4445 80.8233 53.4063 80.9384 53.3729V49.2666C80.8383 49.2284 80.7383 49.1878 80.6382 49.1448C80.5431 49.1018 80.4531 49.0588 80.368 49.0158V48.8152H81.6363L84.0002 52.2191L84.3454 52.8354H84.3754L84.3379 52.2191V49.3096C84.2328 49.2666 84.1303 49.2212 84.0302 49.1735C83.9352 49.1257 83.8451 49.0755 83.7601 49.023V48.8152Z" fill="black"/>
<path d="M32.6325 53.5854C32.7946 53.6026 32.9477 53.6313 33.0918 53.6714C33.2359 53.7058 33.371 53.746 33.497 53.7918V54.0412H31.0296V53.7918C31.1496 53.7345 31.2727 53.6915 31.3988 53.6628C31.5249 53.6342 31.6479 53.6084 31.768 53.5854V48.486C31.6299 48.463 31.5008 48.4344 31.3808 48.4C31.2607 48.3598 31.1436 48.3168 31.0296 48.271V48.0216H31.84C32.0802 48.0216 32.3413 48.0101 32.6235 47.9872C32.9057 47.9643 33.1758 47.9528 33.434 47.9528C33.7282 47.9528 34.0163 47.9843 34.2985 48.0474C34.5807 48.1047 34.8298 48.2051 35.046 48.3484C35.2681 48.4917 35.4452 48.6838 35.5773 48.9245C35.7154 49.1596 35.7844 49.4548 35.7844 49.8103C35.7844 50.1485 35.7154 50.438 35.5773 50.6788C35.4392 50.9196 35.2531 51.1174 35.0189 51.2722C34.7908 51.427 34.5296 51.5416 34.2355 51.6162C33.9413 51.685 33.6381 51.7194 33.3259 51.7194C33.2959 51.7194 33.2479 51.7194 33.1818 51.7194C33.1218 51.7194 33.0558 51.7194 32.9837 51.7194C32.9117 51.7136 32.8426 51.7079 32.7766 51.7022C32.7106 51.6964 32.6625 51.6907 32.6325 51.685V53.5854ZM33.2449 48.4C33.1008 48.4 32.9837 48.4028 32.8937 48.4086C32.8036 48.4143 32.7166 48.4258 32.6325 48.443V51.2292C32.6625 51.2407 32.7046 51.2493 32.7586 51.255C32.8186 51.255 32.8787 51.2579 32.9387 51.2636C33.0047 51.2693 33.0678 51.2722 33.1278 51.2722C33.1879 51.2722 33.2359 51.2722 33.2719 51.2722C33.482 51.2722 33.6801 51.2464 33.8663 51.1948C34.0524 51.1375 34.2145 51.0486 34.3525 50.9282C34.4966 50.8078 34.6107 50.6559 34.6947 50.4724C34.7788 50.289 34.8208 50.0683 34.8208 49.8103C34.8208 49.3402 34.6797 48.9876 34.3976 48.7526C34.1214 48.5175 33.7372 48.4 33.2449 48.4Z" fill="black"/>
<path d="M97.7864 48.923C97.7814 49.1141 97.7714 49.3076 97.7564 49.5035C97.7464 49.6946 97.7289 49.8881 97.7039 50.0839H97.5088L97.2011 49.2957H95.5651V51.1947H96.7883L97.081 50.6644H97.2686C97.2986 51.1374 97.2986 51.6199 97.2686 52.112H97.081L96.7883 51.5673H95.5651V53.5667H97.2911L97.6589 52.7068H97.8465C97.8815 52.9074 97.9065 53.1105 97.9215 53.3159C97.9365 53.5213 97.939 53.7292 97.929 53.9394H94.2293V53.7315C94.4044 53.6551 94.6095 53.5978 94.8447 53.5596V49.31C94.7446 49.2909 94.642 49.267 94.537 49.2383C94.4319 49.2049 94.3294 49.1691 94.2293 49.1308V48.923H97.7864Z" fill="black"/>
<path d="M102.469 49.31C102.349 49.2861 102.237 49.2598 102.132 49.2312C102.027 49.1977 101.924 49.1643 101.824 49.1308V48.923H103.513V49.1308C103.367 49.2073 103.187 49.267 102.972 49.31L101.276 53.9394L100.864 54.0254L98.9499 49.31C98.8498 49.2861 98.7522 49.2598 98.6572 49.2312C98.5621 49.1977 98.4696 49.1643 98.3795 49.1308V48.923H100.368V49.1308C100.283 49.1643 100.188 49.1977 100.083 49.2312C99.978 49.2598 99.8679 49.2861 99.7528 49.31L101.036 52.5849L101.194 53.1582H101.209L101.359 52.5706L102.469 49.31Z" fill="black"/>
<path d="M105.791 53.9394H103.87V53.7315C104.065 53.6455 104.265 53.5882 104.47 53.5596V49.31C104.37 49.2909 104.27 49.267 104.17 49.2383C104.07 49.2049 103.97 49.1691 103.87 49.1308V48.923H105.791V49.1308C105.701 49.1691 105.603 49.2049 105.498 49.2383C105.393 49.267 105.291 49.2909 105.191 49.31V53.5596C105.296 53.5787 105.401 53.6025 105.506 53.6312C105.611 53.6599 105.706 53.6933 105.791 53.7315V53.9394Z" fill="black"/>
<path d="M109.525 53.9394H107.416V53.7315C107.526 53.6933 107.636 53.6599 107.746 53.6312C107.861 53.6025 107.984 53.5787 108.114 53.5596V49.2957H106.966L106.568 50.3204H106.38C106.365 50.2249 106.353 50.1174 106.343 49.9979C106.333 49.8737 106.323 49.7495 106.313 49.6253C106.308 49.4963 106.303 49.3721 106.298 49.2527C106.293 49.1284 106.29 49.0186 106.29 48.923H110.651C110.651 49.0186 110.648 49.1261 110.643 49.2455C110.638 49.3649 110.631 49.4891 110.621 49.6181C110.616 49.7424 110.608 49.8666 110.598 49.9908C110.593 50.1102 110.583 50.2201 110.568 50.3204H110.373L109.983 49.2957H108.834V53.5596C108.965 53.5834 109.085 53.6073 109.195 53.6312C109.31 53.6551 109.42 53.6885 109.525 53.7315V53.9394Z" fill="black"/>
<path d="M111.852 53.9394H110.186V53.7315C110.366 53.6551 110.546 53.5978 110.726 53.5596L112.625 48.837H112.842L114.741 53.5596C114.841 53.5787 114.939 53.6002 115.034 53.6241C115.134 53.6479 115.226 53.6838 115.311 53.7315V53.9394H113.39V53.7315C113.49 53.6933 113.593 53.6599 113.698 53.6312C113.803 53.6025 113.906 53.5787 114.006 53.5596L113.495 52.2481H111.702L111.207 53.5596C111.417 53.5882 111.632 53.6455 111.852 53.7315V53.9394ZM111.852 51.8755H113.368L112.775 50.3563L112.632 49.74H112.617L112.43 50.3706L111.852 51.8755Z" fill="black"/>
<path d="M115.526 48.923H117.582V49.1308C117.462 49.1738 117.342 49.2121 117.222 49.2455C117.102 49.2742 116.982 49.2957 116.862 49.31V53.5667H118.588L119.031 52.413H119.226C119.241 52.5133 119.253 52.6303 119.263 52.7641C119.278 52.8931 119.288 53.0293 119.293 53.1726C119.303 53.3111 119.308 53.4473 119.308 53.5811C119.308 53.7148 119.306 53.8343 119.301 53.9394H115.526V53.7315C115.646 53.679 115.756 53.6408 115.856 53.6169C115.956 53.593 116.052 53.5739 116.142 53.5596V49.31C116.027 49.2909 115.916 49.267 115.811 49.2383C115.706 49.2049 115.611 49.1691 115.526 49.1308V48.923Z" fill="black"/>
<path d="M121.709 53.9394H119.787V53.7315C119.983 53.6455 120.183 53.5882 120.388 53.5596V49.31C120.288 49.2909 120.188 49.267 120.088 49.2383C119.988 49.2049 119.888 49.1691 119.787 49.1308V48.923H121.709V49.1308C121.619 49.1691 121.521 49.2049 121.416 49.2383C121.311 49.267 121.208 49.2909 121.108 49.31V53.5596C121.213 53.5787 121.318 53.6025 121.423 53.6312C121.529 53.6599 121.624 53.6933 121.709 53.7315V53.9394Z" fill="black"/>
<path d="M126.065 52.5634H126.261C126.276 52.659 126.288 52.7665 126.298 52.8859C126.313 53.0054 126.323 53.1272 126.328 53.2514C126.338 53.3756 126.343 53.4974 126.343 53.6169C126.348 53.7363 126.348 53.8438 126.343 53.9394H122.358V53.5739L125.48 49.2957H123.169L122.711 50.2989H122.523C122.508 50.1986 122.493 50.0887 122.478 49.9693C122.468 49.8498 122.458 49.728 122.448 49.6038C122.443 49.4796 122.438 49.3602 122.433 49.2455C122.433 49.1261 122.433 49.0186 122.433 48.923H126.268V49.2957L123.161 53.5667H125.608L126.065 52.5634Z" fill="black"/>
<path d="M128.312 53.9394H126.646V53.7315C126.826 53.6551 127.006 53.5978 127.186 53.5596L129.085 48.837H129.303L131.201 53.5596C131.301 53.5787 131.399 53.6002 131.494 53.6241C131.594 53.6479 131.686 53.6838 131.771 53.7315V53.9394H129.85V53.7315C129.95 53.6933 130.053 53.6599 130.158 53.6312C130.263 53.6025 130.366 53.5787 130.466 53.5596L129.955 52.2481H128.162L127.667 53.5596C127.877 53.5882 128.092 53.6455 128.312 53.7315V53.9394ZM128.312 51.8755H129.828L129.235 50.3563L129.092 49.74H129.077L128.89 50.3706L128.312 51.8755Z" fill="black"/>
<path d="M134.537 53.9394H132.429V53.7315C132.539 53.6933 132.649 53.6599 132.759 53.6312C132.874 53.6025 132.996 53.5787 133.127 53.5596V49.2957H131.978L131.581 50.3204H131.393C131.378 50.2249 131.365 50.1174 131.355 49.9979C131.345 49.8737 131.335 49.7495 131.325 49.6253C131.32 49.4963 131.315 49.3721 131.31 49.2527C131.305 49.1284 131.303 49.0186 131.303 48.923H135.663C135.663 49.0186 135.661 49.1261 135.656 49.2455C135.651 49.3649 135.643 49.4891 135.633 49.6181C135.628 49.7424 135.621 49.8666 135.611 49.9908C135.606 50.1102 135.595 50.2201 135.58 50.3204H135.385L134.995 49.2957H133.847V53.5596C133.977 53.5834 134.097 53.6073 134.207 53.6312C134.322 53.6551 134.432 53.6885 134.537 53.7315V53.9394Z" fill="black"/>
<path d="M138.088 53.9394H136.167V53.7315C136.362 53.6455 136.562 53.5882 136.767 53.5596V49.31C136.667 49.2909 136.567 49.267 136.467 49.2383C136.367 49.2049 136.267 49.1691 136.167 49.1308V48.923H138.088V49.1308C137.998 49.1691 137.9 49.2049 137.795 49.2383C137.69 49.267 137.588 49.2909 137.488 49.31V53.5596C137.593 53.5787 137.698 53.6025 137.803 53.6312C137.908 53.6599 138.003 53.6933 138.088 53.7315V53.9394Z" fill="black"/>
<path d="M138.843 51.4312C138.843 51.0585 138.895 50.7146 139 50.3993C139.11 50.0792 139.265 49.8045 139.466 49.5751C139.671 49.341 139.921 49.1595 140.216 49.0305C140.511 48.9015 140.846 48.837 141.222 48.837C141.597 48.837 141.932 48.9015 142.227 49.0305C142.522 49.1595 142.77 49.341 142.97 49.5751C143.175 49.8045 143.33 50.0792 143.435 50.3993C143.546 50.7146 143.601 51.0585 143.601 51.4312C143.601 51.8038 143.546 52.1502 143.435 52.4703C143.33 52.7856 143.175 53.0603 142.97 53.2944C142.77 53.5237 142.522 53.7029 142.227 53.8319C141.932 53.9609 141.597 54.0254 141.222 54.0254C140.846 54.0254 140.511 53.9609 140.216 53.8319C139.921 53.7029 139.671 53.5237 139.466 53.2944C139.265 53.0603 139.11 52.7856 139 52.4703C138.895 52.1502 138.843 51.8038 138.843 51.4312ZM139.646 51.4312C139.646 51.7369 139.678 52.026 139.743 52.2983C139.813 52.5658 139.916 52.7999 140.051 53.0006C140.186 53.2012 140.356 53.3613 140.561 53.4807C140.766 53.5954 141.009 53.6527 141.289 53.6527C141.544 53.6527 141.767 53.5954 141.957 53.4807C142.147 53.3613 142.302 53.2012 142.422 53.0006C142.547 52.7999 142.64 52.5658 142.7 52.2983C142.765 52.026 142.798 51.7369 142.798 51.4312C142.798 51.1254 142.765 50.8388 142.7 50.5712C142.635 50.2989 142.535 50.0624 142.4 49.8618C142.265 49.6611 142.095 49.5035 141.89 49.3888C141.684 49.2694 141.442 49.2097 141.162 49.2097C140.886 49.2097 140.651 49.2694 140.456 49.3888C140.266 49.5035 140.111 49.6611 139.991 49.8618C139.871 50.0624 139.783 50.2989 139.728 50.5712C139.673 50.8388 139.646 51.1254 139.646 51.4312Z" fill="black"/>
<path d="M147.655 48.923H149.276V49.1308C149.066 49.2646 148.86 49.3602 148.66 49.4175V54.0254H148.233L145.508 50.0768L145.216 49.5178H145.193L145.261 50.0768V53.4807C145.466 53.5333 145.659 53.6169 145.839 53.7315V53.9394H144.218V53.7315C144.308 53.679 144.403 53.6336 144.503 53.5954C144.608 53.5524 144.718 53.5142 144.833 53.4807V49.3745C144.733 49.3363 144.633 49.2957 144.533 49.2527C144.438 49.2097 144.348 49.1667 144.263 49.1237V48.923H145.531L147.895 52.327L148.24 52.9433H148.27L148.233 52.327V49.4175C148.128 49.3745 148.025 49.3291 147.925 49.2813C147.83 49.2336 147.74 49.1834 147.655 49.1308V48.923Z" fill="black"/>
<path d="M89.8722 53.5854C90.0103 53.6141 90.1424 53.6456 90.2684 53.68C90.3945 53.7087 90.5176 53.746 90.6376 53.7918V54.0412H88.2692V53.7918C88.4013 53.7345 88.5274 53.6915 88.6475 53.6628C88.7675 53.6342 88.8876 53.6084 89.0077 53.5854V48.486C88.8516 48.4573 88.7135 48.4258 88.5934 48.3914C88.4734 48.3512 88.3653 48.3111 88.2692 48.271V48.0216H89.0617C89.3019 48.0216 89.563 48.0101 89.8452 47.9872C90.1333 47.9643 90.4125 47.9528 90.6827 47.9528C90.9769 47.9528 91.25 47.9843 91.5022 48.0474C91.7603 48.1105 91.9825 48.2108 92.1686 48.3484C92.3547 48.486 92.4988 48.6608 92.6008 48.8729C92.7089 49.0851 92.7629 49.3402 92.7629 49.6383C92.7629 50.0568 92.6459 50.4036 92.4117 50.6788C92.1836 50.954 91.8714 51.1518 91.4752 51.2722C91.7333 51.662 92.0035 52.049 92.2856 52.4331C92.5678 52.8172 92.862 53.1985 93.1682 53.5768L93.6545 53.8262V54.0412H92.5648L92.2226 53.8004C92.0545 53.5998 91.9014 53.4049 91.7633 53.2157C91.6252 53.0207 91.4962 52.8258 91.3761 52.6309C91.256 52.4302 91.142 52.2296 91.0339 52.0289C90.9318 51.8226 90.8268 51.6047 90.7187 51.3754H89.8722V53.5854ZM90.4846 48.4C90.3405 48.4 90.2204 48.4028 90.1243 48.4086C90.0343 48.4143 89.9502 48.4258 89.8722 48.443V51.0142H90.5206C90.9348 51.0142 91.262 50.8881 91.5022 50.6358C91.7483 50.3836 91.8714 50.0511 91.8714 49.6383C91.8714 49.2141 91.7423 48.9016 91.4842 48.701C91.226 48.5003 90.8928 48.4 90.4846 48.4Z" fill="black"/>
<path d="M158.573 51.4312C158.573 51.0585 158.625 50.7146 158.73 50.3993C158.84 50.0792 158.996 49.8045 159.196 49.5751C159.401 49.341 159.651 49.1595 159.946 49.0305C160.241 48.9015 160.576 48.837 160.952 48.837C161.327 48.837 161.662 48.9015 161.957 49.0305C162.252 49.1595 162.5 49.341 162.7 49.5751C162.905 49.8045 163.06 50.0792 163.166 50.3993C163.276 50.7146 163.331 51.0585 163.331 51.4312C163.331 51.8038 163.276 52.1502 163.166 52.4703C163.06 52.7856 162.905 53.0603 162.7 53.2944C162.5 53.5237 162.252 53.7029 161.957 53.8319C161.662 53.9609 161.327 54.0254 160.952 54.0254C160.576 54.0254 160.241 53.9609 159.946 53.8319C159.651 53.7029 159.401 53.5237 159.196 53.2944C158.996 53.0603 158.84 52.7856 158.73 52.4703C158.625 52.1502 158.573 51.8038 158.573 51.4312ZM159.376 51.4312C159.376 51.7369 159.408 52.026 159.473 52.2983C159.543 52.5658 159.646 52.7999 159.781 53.0006C159.916 53.2012 160.086 53.3613 160.291 53.4807C160.496 53.5954 160.739 53.6527 161.019 53.6527C161.274 53.6527 161.497 53.5954 161.687 53.4807C161.877 53.3613 162.032 53.2012 162.152 53.0006C162.277 52.7999 162.37 52.5658 162.43 52.2983C162.495 52.026 162.528 51.7369 162.528 51.4312C162.528 51.1254 162.495 50.8388 162.43 50.5712C162.365 50.2989 162.265 50.0624 162.13 49.8618C161.995 49.6611 161.825 49.5035 161.62 49.3888C161.414 49.2694 161.172 49.2097 160.892 49.2097C160.616 49.2097 160.381 49.2694 160.186 49.3888C159.996 49.5035 159.841 49.6611 159.721 49.8618C159.601 50.0624 159.513 50.2989 159.458 50.5712C159.403 50.8388 159.376 51.1254 159.376 51.4312Z" fill="black"/>
<path d="M165.284 53.5596C165.399 53.5834 165.509 53.6097 165.614 53.6384C165.719 53.6623 165.821 53.6933 165.921 53.7315V53.9394H163.948V53.7315C164.058 53.6838 164.163 53.6479 164.263 53.6241C164.363 53.6002 164.463 53.5787 164.563 53.5596V49.31C164.433 49.2861 164.318 49.2598 164.218 49.2312C164.118 49.1977 164.028 49.1643 163.948 49.1308V48.923H164.608C164.808 48.923 165.026 48.9135 165.261 48.8943C165.501 48.8752 165.734 48.8657 165.959 48.8657C166.204 48.8657 166.432 48.892 166.642 48.9445C166.857 48.9971 167.042 49.0807 167.197 49.1953C167.352 49.31 167.472 49.4557 167.557 49.6325C167.647 49.8092 167.692 50.0218 167.692 50.2703C167.692 50.619 167.595 50.9081 167.4 51.1374C167.21 51.3667 166.95 51.5315 166.619 51.6318C166.834 51.9567 167.06 52.2792 167.295 52.5993C167.53 52.9194 167.775 53.2371 168.03 53.5524L168.435 53.7602V53.9394H167.527L167.242 53.7387C167.102 53.5715 166.975 53.4091 166.859 53.2514C166.744 53.089 166.637 52.9265 166.537 52.7641C166.437 52.5969 166.342 52.4297 166.252 52.2625C166.167 52.0905 166.079 51.9089 165.989 51.7178H165.284V53.5596ZM165.794 49.2383C165.674 49.2383 165.574 49.2407 165.494 49.2455C165.419 49.2503 165.349 49.2598 165.284 49.2742V51.4169H165.824C166.169 51.4169 166.442 51.3118 166.642 51.1015C166.847 50.8913 166.95 50.6142 166.95 50.2703C166.95 49.9167 166.842 49.6564 166.627 49.4891C166.412 49.3219 166.134 49.2383 165.794 49.2383Z" fill="black"/>
<path d="M170.062 53.5596C170.197 53.5739 170.324 53.5978 170.445 53.6312C170.565 53.6599 170.677 53.6933 170.782 53.7315V53.9394H168.726V53.7315C168.826 53.6838 168.929 53.6479 169.034 53.6241C169.139 53.6002 169.241 53.5787 169.341 53.5596V49.31C169.226 49.2909 169.119 49.267 169.019 49.2383C168.919 49.2049 168.821 49.1691 168.726 49.1308V48.923H169.401C169.602 48.923 169.819 48.9135 170.054 48.8943C170.289 48.8752 170.515 48.8657 170.73 48.8657C170.975 48.8657 171.215 48.892 171.45 48.9445C171.685 48.9923 171.893 49.0759 172.073 49.1953C172.258 49.3148 172.406 49.4748 172.516 49.6755C172.631 49.8713 172.688 50.1174 172.688 50.4136C172.688 50.6955 172.631 50.9367 172.516 51.1374C172.401 51.338 172.246 51.5028 172.05 51.6318C171.86 51.7608 171.643 51.8564 171.398 51.9185C171.152 51.9758 170.9 52.0045 170.64 52.0045C170.615 52.0045 170.575 52.0045 170.52 52.0045C170.47 52.0045 170.415 52.0045 170.354 52.0045C170.294 51.9997 170.237 51.9949 170.182 51.9902C170.127 51.9854 170.087 51.9806 170.062 51.9758V53.5596ZM170.572 49.2383C170.452 49.2383 170.354 49.2407 170.279 49.2455C170.204 49.2503 170.132 49.2598 170.062 49.2742V51.596C170.087 51.6056 170.122 51.6127 170.167 51.6175C170.217 51.6175 170.267 51.6199 170.317 51.6247C170.372 51.6295 170.425 51.6318 170.475 51.6318C170.525 51.6318 170.565 51.6318 170.595 51.6318C170.77 51.6318 170.935 51.6103 171.09 51.5673C171.245 51.5196 171.38 51.4455 171.495 51.3452C171.615 51.2449 171.71 51.1183 171.78 50.9654C171.85 50.8125 171.885 50.6286 171.885 50.4136C171.885 50.0218 171.768 49.728 171.533 49.5321C171.303 49.3363 170.982 49.2383 170.572 49.2383Z" fill="black"/>
<path d="M173.377 51.4312C173.377 51.0585 173.429 50.7146 173.534 50.3993C173.644 50.0792 173.799 49.8045 173.999 49.5751C174.205 49.341 174.455 49.1595 174.75 49.0305C175.045 48.9015 175.38 48.837 175.755 48.837C176.131 48.837 176.466 48.9015 176.761 49.0305C177.056 49.1595 177.304 49.341 177.504 49.5751C177.709 49.8045 177.864 50.0792 177.969 50.3993C178.079 50.7146 178.134 51.0585 178.134 51.4312C178.134 51.8038 178.079 52.1502 177.969 52.4703C177.864 52.7856 177.709 53.0603 177.504 53.2944C177.304 53.5237 177.056 53.7029 176.761 53.8319C176.466 53.9609 176.131 54.0254 175.755 54.0254C175.38 54.0254 175.045 53.9609 174.75 53.8319C174.455 53.7029 174.205 53.5237 173.999 53.2944C173.799 53.0603 173.644 52.7856 173.534 52.4703C173.429 52.1502 173.377 51.8038 173.377 51.4312ZM174.18 51.4312C174.18 51.7369 174.212 52.026 174.277 52.2983C174.347 52.5658 174.45 52.7999 174.585 53.0006C174.72 53.2012 174.89 53.3613 175.095 53.4807C175.3 53.5954 175.543 53.6527 175.823 53.6527C176.078 53.6527 176.301 53.5954 176.491 53.4807C176.681 53.3613 176.836 53.2012 176.956 53.0006C177.081 52.7999 177.174 52.5658 177.234 52.2983C177.299 52.026 177.331 51.7369 177.331 51.4312C177.331 51.1254 177.299 50.8388 177.234 50.5712C177.169 50.2989 177.069 50.0624 176.934 49.8618C176.799 49.6611 176.628 49.5035 176.423 49.3888C176.218 49.2694 175.976 49.2097 175.695 49.2097C175.42 49.2097 175.185 49.2694 174.99 49.3888C174.8 49.5035 174.645 49.6611 174.525 49.8618C174.405 50.0624 174.317 50.2989 174.262 50.5712C174.207 50.8388 174.18 51.1254 174.18 51.4312Z" fill="black"/>
<path d="M180.087 53.5596C180.202 53.5834 180.312 53.6097 180.418 53.6384C180.523 53.6623 180.625 53.6933 180.725 53.7315V53.9394H178.752V53.7315C178.862 53.6838 178.967 53.6479 179.067 53.6241C179.167 53.6002 179.267 53.5787 179.367 53.5596V49.31C179.237 49.2861 179.122 49.2598 179.022 49.2312C178.922 49.1977 178.832 49.1643 178.752 49.1308V48.923H179.412C179.612 48.923 179.83 48.9135 180.065 48.8943C180.305 48.8752 180.538 48.8657 180.763 48.8657C181.008 48.8657 181.236 48.892 181.446 48.9445C181.661 48.9971 181.846 49.0807 182.001 49.1953C182.156 49.31 182.276 49.4557 182.361 49.6325C182.451 49.8092 182.496 50.0218 182.496 50.2703C182.496 50.619 182.399 50.9081 182.204 51.1374C182.013 51.3667 181.753 51.5315 181.423 51.6318C181.638 51.9567 181.863 52.2792 182.099 52.5993C182.334 52.9194 182.579 53.2371 182.834 53.5524L183.239 53.7602V53.9394H182.331L182.046 53.7387C181.906 53.5715 181.778 53.4091 181.663 53.2514C181.548 53.089 181.441 52.9265 181.341 52.7641C181.241 52.5969 181.145 52.4297 181.055 52.2625C180.97 52.0905 180.883 51.9089 180.793 51.7178H180.087V53.5596ZM180.598 49.2383C180.478 49.2383 180.378 49.2407 180.297 49.2455C180.222 49.2503 180.152 49.2598 180.087 49.2742V51.4169H180.628C180.973 51.4169 181.246 51.3118 181.446 51.1015C181.651 50.8913 181.753 50.6142 181.753 50.2703C181.753 49.9167 181.646 49.6564 181.431 49.4891C181.216 49.3219 180.938 49.2383 180.598 49.2383Z" fill="black"/>
<path d="M184.978 53.9394H183.312V53.7315C183.492 53.6551 183.672 53.5978 183.852 53.5596L185.751 48.837H185.969L187.867 53.5596C187.967 53.5787 188.065 53.6002 188.16 53.6241C188.26 53.6479 188.353 53.6838 188.438 53.7315V53.9394H186.517V53.7315C186.617 53.6933 186.719 53.6599 186.824 53.6312C186.929 53.6025 187.032 53.5787 187.132 53.5596L186.622 52.2481H184.828L184.333 53.5596C184.543 53.5882 184.758 53.6455 184.978 53.7315V53.9394ZM184.978 51.8755H186.494L185.901 50.3563L185.759 49.74H185.744L185.556 50.3706L184.978 51.8755Z" fill="black"/>
<path d="M191.204 53.9394H189.095V53.7315C189.205 53.6933 189.315 53.6599 189.425 53.6312C189.54 53.6025 189.663 53.5787 189.793 53.5596V49.2957H188.645L188.247 50.3204H188.059C188.044 50.2249 188.032 50.1174 188.022 49.9979C188.012 49.8737 188.002 49.7495 187.992 49.6253C187.987 49.4963 187.982 49.3721 187.977 49.2527C187.972 49.1284 187.969 49.0186 187.969 48.923H192.329C192.329 49.0186 192.327 49.1261 192.322 49.2455C192.317 49.3649 192.309 49.4891 192.299 49.6181C192.294 49.7424 192.287 49.8666 192.277 49.9908C192.272 50.1102 192.262 50.2201 192.247 50.3204H192.052L191.661 49.2957H190.513V53.5596C190.643 53.5834 190.763 53.6073 190.873 53.6312C190.988 53.6551 191.099 53.6885 191.204 53.7315V53.9394Z" fill="black"/>
<path d="M194.754 53.9394H192.833V53.7315C193.028 53.6455 193.228 53.5882 193.433 53.5596V49.31C193.333 49.2909 193.233 49.267 193.133 49.2383C193.033 49.2049 192.933 49.1691 192.833 49.1308V48.923H194.754V49.1308C194.664 49.1691 194.567 49.2049 194.462 49.2383C194.357 49.267 194.254 49.2909 194.154 49.31V53.5596C194.259 53.5787 194.364 53.6025 194.469 53.6312C194.574 53.6599 194.669 53.6933 194.754 53.7315V53.9394Z" fill="black"/>
<path d="M195.509 51.4312C195.509 51.0585 195.561 50.7146 195.667 50.3993C195.777 50.0792 195.932 49.8045 196.132 49.5751C196.337 49.341 196.587 49.1595 196.882 49.0305C197.177 48.9015 197.513 48.837 197.888 48.837C198.263 48.837 198.598 48.9015 198.893 49.0305C199.189 49.1595 199.436 49.341 199.636 49.5751C199.842 49.8045 199.997 50.0792 200.102 50.3993C200.212 50.7146 200.267 51.0585 200.267 51.4312C200.267 51.8038 200.212 52.1502 200.102 52.4703C199.997 52.7856 199.842 53.0603 199.636 53.2944C199.436 53.5237 199.189 53.7029 198.893 53.8319C198.598 53.9609 198.263 54.0254 197.888 54.0254C197.513 54.0254 197.177 53.9609 196.882 53.8319C196.587 53.7029 196.337 53.5237 196.132 53.2944C195.932 53.0603 195.777 52.7856 195.667 52.4703C195.561 52.1502 195.509 51.8038 195.509 51.4312ZM196.312 51.4312C196.312 51.7369 196.344 52.026 196.409 52.2983C196.48 52.5658 196.582 52.7999 196.717 53.0006C196.852 53.2012 197.022 53.3613 197.227 53.4807C197.433 53.5954 197.675 53.6527 197.955 53.6527C198.211 53.6527 198.433 53.5954 198.623 53.4807C198.813 53.3613 198.968 53.2012 199.089 53.0006C199.214 52.7999 199.306 52.5658 199.366 52.2983C199.431 52.026 199.464 51.7369 199.464 51.4312C199.464 51.1254 199.431 50.8388 199.366 50.5712C199.301 50.2989 199.201 50.0624 199.066 49.8618C198.931 49.6611 198.761 49.5035 198.556 49.3888C198.351 49.2694 198.108 49.2097 197.828 49.2097C197.553 49.2097 197.318 49.2694 197.122 49.3888C196.932 49.5035 196.777 49.6611 196.657 49.8618C196.537 50.0624 196.449 50.2989 196.394 50.5712C196.339 50.8388 196.312 51.1254 196.312 51.4312Z" fill="black"/>
<path d="M204.321 48.923H205.942V49.1308C205.732 49.2646 205.527 49.3602 205.327 49.4175V54.0254H204.899L202.175 50.0768L201.882 49.5178H201.859L201.927 50.0768V53.4807C202.132 53.5333 202.325 53.6169 202.505 53.7315V53.9394H200.884V53.7315C200.974 53.679 201.069 53.6336 201.169 53.5954C201.274 53.5524 201.384 53.5142 201.499 53.4807V49.3745C201.399 49.3363 201.299 49.2957 201.199 49.2527C201.104 49.2097 201.014 49.1667 200.929 49.1237V48.923H202.197L204.561 52.327L204.906 52.9433H204.936L204.899 52.327V49.4175C204.794 49.3745 204.691 49.3291 204.591 49.2813C204.496 49.2336 204.406 49.1834 204.321 49.1308V48.923Z" fill="black"/>
<path d="M157.097 52.1687H157.332C157.362 52.3293 157.389 52.5328 157.413 52.7793C157.437 53.0201 157.443 53.2551 157.431 53.4844C157.341 53.5532 157.232 53.6106 157.106 53.6564C156.98 53.6966 156.845 53.731 156.701 53.7596C156.563 53.7883 156.419 53.8084 156.269 53.8198C156.125 53.8313 155.987 53.837 155.855 53.837C155.35 53.837 154.9 53.7768 154.504 53.6564C154.108 53.5303 153.771 53.3411 153.495 53.0889C153.225 52.8366 153.015 52.5156 152.865 52.1257C152.721 51.7302 152.649 51.2629 152.649 50.724C152.649 50.1622 152.73 49.6864 152.892 49.2965C153.054 48.9009 153.273 48.5799 153.549 48.3334C153.825 48.0811 154.147 47.8977 154.513 47.783C154.879 47.6684 155.263 47.611 155.666 47.611C156.062 47.611 156.395 47.6368 156.665 47.6884C156.935 47.7343 157.172 47.8059 157.377 47.9034C157.377 47.9951 157.374 48.1041 157.368 48.2302C157.362 48.3506 157.353 48.4796 157.341 48.6172C157.329 48.7547 157.314 48.8895 157.296 49.0213C157.278 49.1532 157.259 49.2736 157.241 49.3825H157.007L156.539 48.1442C156.473 48.1098 156.362 48.0869 156.206 48.0754C156.056 48.0639 155.906 48.0582 155.756 48.0582C155.455 48.0582 155.17 48.1127 154.9 48.2216C154.636 48.3248 154.402 48.4882 154.198 48.7118C154 48.9296 153.84 49.2077 153.72 49.5459C153.6 49.8784 153.54 50.2711 153.54 50.724C153.54 51.1311 153.594 51.5008 153.702 51.8334C153.81 52.1601 153.967 52.4411 154.171 52.6761C154.375 52.9054 154.624 53.0831 154.918 53.2093C155.212 53.3297 155.545 53.3899 155.918 53.3899C156.116 53.3899 156.281 53.3755 156.413 53.3469C156.545 53.3182 156.632 53.2809 156.674 53.2351L157.097 52.1687Z" fill="black"/>
<path d="M4.31798 44.3548C3.90767 44.3548 3.33302 42.682 3.08683 42.0737C2.98246 41.8158 3.77121 40.8823 4.01005 39.7926C4.28057 38.5584 4.36613 37.3774 5.24117 36.4977C5.87147 35.864 6.06578 35.9908 7.08758 35.9908C7.52284 35.9908 7.70283 34.47 7.08758 34.47C7.08758 34.47 6.77963 33.9631 6.77963 33.2028C6.77963 32.4424 7.08758 31.682 7.08758 31.682C7.08758 31.682 7.70326 30.9217 9.24171 30.9217C10.7802 30.9217 11.3958 31.9355 11.3958 31.9355V33.2028H12.319C12.319 33.2028 11.7034 33.2028 12.9343 32.4424C14.1652 31.682 15.0887 32.1889 15.7041 32.4424C16.3196 32.6959 16.3196 33.2028 16.3196 33.2028V34.977H16.9351C17.0376 34.3856 17.3041 33.4562 18.7812 33.4562C19.9522 33.4562 20.4916 33.7217 20.6137 34.0001C20.5804 32.9402 21.0225 31.1751 23.0897 31.1751C25.3054 31.1751 25.5516 32.6958 25.5516 33.4562C25.5516 34.2166 24.3207 34.7235 24.3207 34.7235V35.2304H26.7825C27.1164 35.3679 27.7055 35.4839 27.7055 37.5115C28.0133 38.2719 28.2753 37.8939 28.3212 38.2719C28.5674 40.2995 28.1158 40.4685 27.7055 40.553V44.8618L26.1671 45.1334V52.4654L25.5516 52.6013V53.4793H26.1671V55H23.7052V52.6013C23.2949 52.556 22.4743 52.6175 22.4743 53.2258V55H15.7041V52.9724C15.7041 52.8487 14.4732 51.7902 14.4732 52.6013V55H10.1649V52.6013H8.93398V55H5.24118V52.9724H4.31798V44.3548Z" fill="black"/>
<path d="M13.8575 47.3963C13.55 47.1429 13.6925 45.7399 14.7805 46.6359C15.7038 47.3963 14.4731 47.6498 13.8575 47.3963Z" fill="#B2B2B2"/>
<path d="M10.6407 36.7511C10.9236 36.7511 11.7016 36.2442 11.7016 35.7373V35.2304H12.7626V36.7511H11.348L10.6407 37.0046V37.765H9.22599C9.1081 37.2581 8.94307 36.2949 9.22599 36.4977C9.57964 36.7511 10.287 36.7511 10.6407 36.7511Z" fill="#B2B2B2"/>
<path d="M15.4284 37.2581C15.7113 37.2581 16.4893 36.7511 16.4893 36.2442V35.7373H17.5503V37.2581H16.1357L15.4284 37.5115V38.2719H14.0137C13.8958 37.765 13.7308 36.8018 14.0137 37.0046C14.3673 37.2581 15.0747 37.2581 15.4284 37.2581Z" fill="#B2B2B2"/>
<path d="M21.5508 35.4839C21.8585 35.2304 22.4743 35.2304 22.4743 35.2304L22.474 36.2442H21.8585C21.5508 36.4977 22.1663 36.7511 21.8586 36.7511C20.8738 36.7511 20.9354 36.2442 20.9354 35.9908L21.5508 35.4839Z" fill="#B2B2B2"/>
<path d="M22.7818 39.0322C23.028 39.4378 23.6023 39.6237 23.7049 39.5392C24.0127 39.2857 23.6726 38.3852 23.3973 38.2719C22.7817 38.0184 22.474 38.5253 22.7818 39.0322Z" fill="#B2B2B2"/>
<path d="M24.3204 44.6083L24.3207 40.2995L23.3972 40.2995V44.6083H24.3204Z" fill="#B2B2B2"/>
<path d="M8.31824 44.8617H9.54917V45.8756H8.31824V44.8617Z" fill="#B2B2B2"/>
</svg>
